<?xml version="1.0" encoding="UTF-8"?>
<svg width="24" height="24" viewBox="0 0 24 24" xmlns="http://www.w3.org/2000/svg">
  <!-- CCDebugger Minimal Logo - Scalable for any size -->
  <!-- Can be used with currentColor for easy color changes -->
  
  <g fill="currentColor">
    <!-- Magnifying glass -->
    <path d="M15.5 14h-.79l-.28-.27A6.471 6.471 0 0 0 16 9.5 6.5 6.5 0 1 0 9.5 16c1.61 0 3.09-.59 4.23-1.57l.27.28v.79l5 4.99L20.49 19l-4.99-5zm-6 0C7.01 14 5 11.99 5 9.5S7.01 5 9.5 5 14 7.01 14 9.5 11.99 14 9.5 14z"/>
    
    <!-- Error symbol inside -->
    <g transform="translate(9.5, 9.5)">
      <!-- < > brackets -->
      <path d="M-3 0 L-4.5 -1.5 L-4.3 -1.3 L-2.8 0 L-4.3 1.3 L-4.5 1.5 Z"/>
      <path d="M3 0 L4.5 -1.5 L4.3 -1.3 L2.8 0 L4.3 1.3 L4.5 1.5 Z"/>
      
      <!-- X -->
      <path d="M-1.5 -1.5 L1.5 1.5 M-1.5 1.5 L1.5 -1.5" stroke="currentColor" stroke-width="0.8" fill="none"/>
    </g>
  </g>
</svg>